<svg id="Layer_1" xmlns="http://www.w3.org/2000/svg" viewBox="0 0 125.59 120.19"><g><path d="M88.3,48.2c4.12-2.34,6.99-6.39,7.84-11.06,.84-4.67-.42-9.47-3.46-13.1-3.04-3.64-7.53-5.74-12.28-5.75-4.74,0-9.24,2.1-12.28,5.73-3.04,3.64-4.31,8.44-3.47,13.1,.84,4.67,3.71,8.72,7.83,11.07-5.21,1.49-9.9,4.46-13.66,8.74-1.81-.98-3.72-1.77-5.7-2.33,4.12-2.34,6.99-6.4,7.83-11.06,.84-4.67-.43-9.47-3.47-13.1-3.04-3.64-7.54-5.74-12.28-5.74-4.74,0-9.24,2.1-12.28,5.74s-4.31,8.44-3.46,13.11c.84,4.67,3.71,8.72,7.84,11.06-5.29,1.53-10.03,4.55-13.66,8.7-5.7,6.44-8.84,15.46-8.84,25.4,0,.58,.32,1.12,.82,1.4,.6,.33,14.93,8.2,29.58,8.2,3.87-.02,7.72-.45,11.49-1.29,2.45,5.1,7.02,8.86,12.49,10.28,5.48,1.42,11.3,.35,15.91-2.92,4.62-3.27,7.55-8.41,8.03-14.05,9.78-2.35,16.61-6.48,16.9-6.66,.48-.29,.77-.81,.77-1.36,0-9.94-3.14-18.96-8.84-25.4-3.62-4.15-8.36-7.17-13.66-8.7h0Zm-20.71-13.9c0-3.39,1.35-6.65,3.75-9.05,2.4-2.4,5.66-3.75,9.05-3.75s6.65,1.35,9.05,3.75c2.4,2.4,3.75,5.66,3.75,9.05s-1.35,6.65-3.75,9.05c-2.4,2.4-5.66,3.75-9.05,3.75-3.39,0-6.65-1.35-9.05-3.75-2.4-2.4-3.75-5.65-3.75-9.05h0Zm-35.2,6.4c0-3.39,1.35-6.65,3.75-9.05,2.4-2.4,5.66-3.75,9.05-3.75s6.65,1.35,9.05,3.75c2.4,2.4,3.75,5.66,3.75,9.05s-1.35,6.65-3.75,9.05c-2.4,2.4-5.66,3.75-9.05,3.75-3.39,0-6.65-1.35-9.05-3.75-2.4-2.4-3.75-5.65-3.75-9.05Zm23.14,53.28c-3.4,.73-6.86,1.1-10.34,1.12-11.88,0-23.96-5.72-27.19-7.36,.19-8.77,3.02-16.67,8.02-22.32,4.98-5.62,11.79-8.72,19.17-8.72,9.5,0,17.88,5.11,22.75,13.78-4.7,1.56-8.61,4.88-10.93,9.26-2.31,4.38-2.84,9.48-1.48,14.24h0Zm18.46,10.72c-4.24,0-8.31-1.69-11.31-4.69-3-3-4.69-7.07-4.69-11.31s1.69-8.31,4.69-11.31,7.07-4.69,11.31-4.69,8.31,1.69,11.31,4.69,4.69,7.07,4.69,11.31c0,4.24-1.69,8.31-4.69,11.31-3,3-7.07,4.69-11.31,4.69Zm19.13-17.67c-.46-5.27-3.08-10.12-7.24-13.4-4.16-3.28-9.48-4.7-14.72-3.92-2.42-4.59-5.71-8.34-9.59-11.07,4.95-5.39,11.56-8.34,18.82-8.34s14.19,3.1,19.17,8.72c5.01,5.65,7.84,13.56,8.02,22.35h0c-4.57,2.46-9.43,4.36-14.46,5.65h0Z"/><path d="M74.01,109.48c-1.74,0-3.5-.22-5.22-.67-5.54-1.44-10.19-5.05-12.95-10.02-3.5,.7-7.07,1.06-10.63,1.08-15.07,0-29.74-8.06-30.35-8.4-1.01-.56-1.64-1.63-1.64-2.78,0-10.33,3.28-19.72,9.23-26.45,3.13-3.58,7.03-6.35,11.4-8.13-3.1-2.61-5.22-6.24-5.95-10.3-.93-5.14,.46-10.39,3.8-14.4,3.35-4.01,8.27-6.31,13.49-6.31h0c5.22,0,10.14,2.3,13.49,6.31,3.35,4.01,4.74,9.26,3.81,14.4-.73,4.06-2.85,7.68-5.95,10.3,.65,.26,1.28,.55,1.91,.85,3.04-3.19,6.63-5.65,10.57-7.26-3.1-2.62-5.21-6.24-5.94-10.3-.93-5.14,.46-10.39,3.82-14.39,3.35-4,8.26-6.3,13.48-6.3h0c5.22,0,10.14,2.3,13.49,6.31,3.35,4.01,4.73,9.26,3.8,14.4-.74,4.07-2.85,7.69-5.95,10.3,4.37,1.78,8.27,4.55,11.41,8.14,5.95,6.72,9.23,16.11,9.23,26.44,0,1.1-.58,2.14-1.52,2.71-.28,.17-6.82,4.13-16.28,6.58-.79,5.66-3.87,10.74-8.57,14.07-3.55,2.52-7.74,3.83-12,3.83Zm-16.44-14.29l.54,1.13c2.25,4.69,6.43,8.13,11.46,9.43,5.04,1.3,10.36,.33,14.6-2.68,4.25-3.01,6.93-7.71,7.37-12.89l.1-1.14,1.11-.27c9.57-2.3,16.17-6.3,16.45-6.47,0-9.57-2.99-18.22-8.43-24.37-3.44-3.94-7.9-6.78-12.91-8.23l-3.6-1.04,3.26-1.85c3.72-2.12,6.3-5.75,7.06-9.97,.76-4.22-.38-8.52-3.12-11.81s-6.78-5.18-11.06-5.18h0c-4.28,0-8.31,1.88-11.06,5.17-2.75,3.29-3.89,7.59-3.13,11.81,.76,4.22,3.33,7.85,7.05,9.97l3.27,1.86-3.62,1.03c-4.92,1.4-9.38,4.26-12.91,8.26l-.83,.95-1.11-.6c-1.7-.93-3.51-1.67-5.38-2.2l-3.62-1.03,3.27-1.86c3.72-2.12,6.3-5.75,7.06-9.97,.76-4.22-.38-8.52-3.13-11.81-2.75-3.29-6.78-5.17-11.06-5.17h0c-4.28,0-8.32,1.89-11.07,5.18-2.75,3.29-3.88,7.59-3.12,11.81,.76,4.22,3.34,7.85,7.06,9.97l3.26,1.85-3.6,1.04c-5.01,1.45-9.47,4.29-12.91,8.22-5.45,6.16-8.45,14.81-8.45,24.36,.6,.34,14.57,8.02,28.82,8.02,3.74-.02,7.49-.44,11.15-1.25l1.23-.27Zm16.43,11.09h0c-4.7,0-9.11-1.83-12.43-5.15-3.32-3.32-5.15-7.74-5.15-12.43s1.83-9.11,5.15-12.43c3.32-3.32,7.74-5.15,12.43-5.15s9.11,1.83,12.43,5.15c3.32,3.32,5.15,7.74,5.15,12.43,0,4.7-1.84,9.11-5.16,12.43-3.32,3.32-7.73,5.15-12.42,5.15Zm0-32c-3.85,0-7.47,1.5-10.2,4.22-2.72,2.72-4.22,6.34-4.22,10.2s1.5,7.47,4.22,10.2c2.72,2.72,6.34,4.22,10.19,4.22,3.85,0,7.47-1.51,10.19-4.23,2.72-2.72,4.22-6.34,4.23-10.19,0-3.85-1.5-7.47-4.22-10.19s-6.34-4.22-10.2-4.22Zm-28.79,22.4c-12.17,0-24.44-5.77-27.91-7.53l-.88-.45,.02-.99c.2-9.14,3.19-17.42,8.42-23.33,5.28-5.97,12.51-9.25,20.35-9.25,9.97,0,18.99,5.45,24.13,14.58l.89,1.58-.45-.84c-2.29-4.34-5.35-7.87-9.11-10.51l-1.47-1.04,1.22-1.33c5.24-5.71,12.34-8.85,19.99-8.85s15.07,3.29,20.35,9.26c5.24,5.91,8.23,14.21,8.42,23.37l.02,.97-.85,.46c-4.68,2.52-9.67,4.47-14.82,5.79l-1.8,.46-.16-1.85c-.42-4.82-2.84-9.3-6.64-12.3-3.8-3-8.72-4.31-13.5-3.6l-1.11,.17-.03-.06-1.82,.6c-4.33,1.44-7.89,4.46-10.03,8.5s-2.62,8.68-1.36,13.07l.47,1.63-1.66,.35c-3.5,.75-7.09,1.14-10.66,1.15Zm-25.58-9.91c4.19,2.04,14.99,6.74,25.58,6.74,2.81-.01,5.64-.27,8.42-.77-.93-4.67-.24-9.49,2.01-13.75,2.21-4.18,5.72-7.44,10-9.32-4.71-7.27-12.06-11.4-20.42-11.4-6.92,0-13.31,2.91-17.98,8.19-4.54,5.13-7.22,12.31-7.59,20.31Zm54.34-18.85c4.65,0,9.22,1.56,12.9,4.46,3.99,3.15,6.69,7.68,7.58,12.64,3.98-1.14,7.85-2.68,11.53-4.59-.36-8.02-3.04-15.22-7.6-20.37-4.67-5.28-11.06-8.19-17.98-8.19-6.17,0-11.94,2.32-16.43,6.58,3.23,2.57,5.93,5.77,8.07,9.55,.64-.06,1.28-.09,1.92-.09Zm-28.77-12.84c-3.84,0-7.45-1.5-10.16-4.22-2.71-2.71-4.21-6.32-4.22-10.16h0c0-3.84,1.5-7.46,4.21-10.17s6.33-4.21,10.17-4.21,7.45,1.5,10.17,4.21c2.72,2.72,4.21,6.33,4.21,10.17s-1.5,7.45-4.21,10.17c-2.71,2.72-6.33,4.21-10.17,4.21Zm-11.22-14.38c0,3,1.17,5.81,3.29,7.93,2.12,2.12,4.93,3.29,7.93,3.29,3,0,5.81-1.17,7.93-3.29,2.12-2.12,3.29-4.94,3.29-7.93s-1.17-5.81-3.29-7.93c-2.12-2.12-4.93-3.29-7.93-3.29s-5.81,1.17-7.93,3.29c-2.12,2.12-3.29,4.94-3.29,7.93Zm46.42,7.98c-3.84,0-7.45-1.5-10.17-4.22s-4.21-6.32-4.22-10.16h0c0-3.84,1.5-7.45,4.21-10.17,2.72-2.72,6.33-4.21,10.17-4.21s7.45,1.5,10.17,4.21c2.72,2.72,4.21,6.33,4.21,10.17s-1.5,7.45-4.21,10.17c-2.72,2.72-6.33,4.21-10.17,4.21Zm-11.22-14.38c0,2.99,1.17,5.81,3.29,7.93,2.12,2.12,4.93,3.29,7.93,3.29,3,0,5.81-1.17,7.93-3.29,2.12-2.12,3.29-4.94,3.29-7.93s-1.17-5.81-3.29-7.93c-2.12-2.12-4.94-3.29-7.93-3.29s-5.81,1.17-7.93,3.29c-2.12,2.12-3.29,4.94-3.29,7.93Z"/></g><path d="M81.99,87.1h-6.4v-6.4c0-.88-.72-1.6-1.6-1.6s-1.6,.72-1.6,1.6v6.4h-6.4c-.88,0-1.6,.72-1.6,1.6s.72,1.6,1.6,1.6h6.4v6.4c0,.88,.72,1.6,1.6,1.6s1.6-.72,1.6-1.6v-6.4h6.4c.88,0,1.6-.72,1.6-1.6s-.72-1.6-1.6-1.6Z"/></svg>