<svg xmlns="http://www.w3.org/2000/svg" width="54.579" height="43.07" viewBox="0 0 54.579 43.07">
  <g id="baby-with-heart" transform="translate(-36.18 -53.005)">
    <g id="Group_3" data-name="Group 3" transform="translate(36.18 53.005)">
      <path id="Path_1" data-name="Path 1" d="M84.236,68.124c-.119,0-.238,0-.356.011A21.559,21.559,0,0,0,63.585,53.123h0c-.075,0-.148,0-.222,0s-.146,0-.218,0h0a21.559,21.559,0,0,0-20.3,15c-.046,0-.094,0-.141,0a6.524,6.524,0,1,0,0,13.047c.047,0,.1,0,.141,0A21.524,21.524,0,0,0,72.867,93.96L71.127,91.9A18.916,18.916,0,0,1,45.4,80.586a18.22,18.22,0,0,1-.661-2.6,3.884,3.884,0,0,1-2.035.573,3.778,3.778,0,0,1-.52-.035,3.914,3.914,0,0,1,0-7.759,3.779,3.779,0,0,1,.52-.035,3.884,3.884,0,0,1,2.035.573,18.22,18.22,0,0,1,.661-2.6A19,19,0,0,1,55.989,57.226a4.951,4.951,0,0,0-.324,2.9,6.125,6.125,0,0,0,2.575,3.816,8.591,8.591,0,0,0,4.079,1.418,9.978,9.978,0,0,0,1.025.054A7.326,7.326,0,0,0,67.223,64.4a3.856,3.856,0,0,0,1.87-2.476,3.51,3.51,0,0,0-.957-3.041,5.151,5.151,0,0,0-2.573-1.439,7.118,7.118,0,0,0-2.067-.13,1.3,1.3,0,1,0,.177,2.6A4.553,4.553,0,0,1,65,60a2.52,2.52,0,0,1,1.24.681.944.944,0,0,1,.3.75,1.394,1.394,0,0,1-.681.758,5.317,5.317,0,0,1-3.265.581,6.122,6.122,0,0,1-2.858-.968,3.49,3.49,0,0,1-1.5-2.155,2.391,2.391,0,0,1,.959-2.381,10.9,10.9,0,0,1,4.221-1.533h0A18.91,18.91,0,0,1,82,71.436a3.873,3.873,0,0,1,2.231-.7c.1,0,.2,0,.3.011a3.914,3.914,0,0,1,0,7.806c-.1.007-.2.011-.3.011a3.873,3.873,0,0,1-2.231-.7,18.8,18.8,0,0,1-.652,2.639c-.1.3-.205.6-.319.9.083,0,.168,0,.252,0a7.75,7.75,0,0,1,2.4.355c.068-.193.133-.388.2-.584.118.008.237.011.356.011a6.524,6.524,0,0,0,0-13.047Z" transform="translate(-36.18 -53.104)"/>
      <path id="Path_2" data-name="Path 2" d="M231.089,53.024c-.073,0-.148,0-.222,0s-.146,0-.218,0A1.3,1.3,0,0,1,231.089,53.024Z" transform="translate(-203.686 -53.005)"/>
      <g id="Group_1" data-name="Group 1" transform="translate(19.958 20.843)">
        <circle id="Ellipse_1" data-name="Ellipse 1" cx="1.522" cy="1.522" r="1.522" transform="translate(0.047 0.047)"/>
        <path id="Path_3" data-name="Path 3" d="M183.163,204.367v0a1.569,1.569,0,0,0-3.043.535.412.412,0,0,0,0,.072,1.567,1.567,0,0,0,1.565,1.5,1.588,1.588,0,0,0,1.57-1.571A1.475,1.475,0,0,0,183.163,204.367Zm-1.474,2.008a1.476,1.476,0,0,1-1.474-1.475,1.146,1.146,0,0,1,.019-.218h0a1.47,1.47,0,0,1,2.718-.538,1.447,1.447,0,0,1,.211.756A1.475,1.475,0,0,1,181.69,206.375Z" transform="translate(-180.12 -203.33)"/>
      </g>
      <g id="Group_2" data-name="Group 2" transform="translate(31.155 20.735)">
        <circle id="Ellipse_2" data-name="Ellipse 2" cx="1.522" cy="1.522" r="1.522" transform="translate(0.049 0.047)"/>
        <path id="Path_4" data-name="Path 4" d="M262.451,202.55a1.57,1.57,0,1,0,1.57,1.57A1.573,1.573,0,0,0,262.451,202.55Zm0,3.043a1.474,1.474,0,1,1,1.474-1.474A1.476,1.476,0,0,1,262.451,205.593Z" transform="translate(-260.88 -202.55)"/>
      </g>
      <path id="Path_5" data-name="Path 5" d="M206.791,249.606a5.49,5.49,0,0,1-5.2,4.466c-.093,0-.187,0-.28-.008a4.924,4.924,0,0,1-4.519-4.591,1.108,1.108,0,0,1,2.2-.3,2.745,2.745,0,0,0,2.46,2.682c1.116.072,2.622-.628,3.2-2.813a1.106,1.106,0,0,1,2.139.564Z" transform="translate(-174.517 -221.149)"/>
    </g>
    <path id="Path_6" data-name="Path 6" d="M297.038,264.744a4.225,4.225,0,0,0-1.721-1.362,4.648,4.648,0,0,0-1.851-.373,4.706,4.706,0,0,0-.571.036,5.419,5.419,0,0,0-.571.1l-.026.006a4.211,4.211,0,0,0-1.7.811,4.42,4.42,0,0,0-2.306-.914,4.885,4.885,0,0,0-.569-.036,4.365,4.365,0,0,0-3.573,1.736,4.839,4.839,0,0,0-.384,4.732,6.627,6.627,0,0,0,1,1.576l.064.079c.463.58,1.057,1.241,1.768,1.97,1.33,1.367,2.72,2.615,3.257,3.089a1.133,1.133,0,0,0,1.495-.008c1.6-1.418,5.385-4.912,6.079-6.709a4.844,4.844,0,0,0-.388-4.731Zm-11.07,1.308a2.129,2.129,0,0,1,1.755-.822,2.6,2.6,0,0,1,.309.018,1.847,1.847,0,0,1,1.568.951,1.047,1.047,0,0,0,.519.481,1.137,1.137,0,0,0,.484.105,1.114,1.114,0,0,0,.991-.595,1.859,1.859,0,0,1,1.56-.943,2.524,2.524,0,0,1,1.156.129,1.956,1.956,0,0,1,.914.675,2.1,2.1,0,0,1,.383,1.267,3.9,3.9,0,0,1-.28,1.37c-.359.935-2.652,3.257-4.731,5.17-.756-.695-1.5-1.409-2.163-2.078-.763-.768-1.371-1.432-1.809-1.967a4.7,4.7,0,0,1-.758-1.124,2.73,2.73,0,0,1,.1-2.636Z" transform="translate(-212.887 -180.887)"/>
  </g>
</svg>
