<svg id="Layer_1" xmlns="http://www.w3.org/2000/svg" viewBox="0 0 125.59 120.19"><path d="M44.15,16.59c-.82,0-1.61,.33-2.2,.91s-.91,1.37-.91,2.2v6.22h-6.22c-8.55,0-15.54,6.98-15.54,15.54v46.61c0,8.55,6.98,15.54,15.54,15.54h55.94c8.55,0,15.54-6.98,15.54-15.54,0-.82-.33-1.61-.91-2.2s-1.37-.91-2.2-.91-1.61,.33-2.2,.91-.91,1.37-.91,2.2c0,5.22-4.1,9.32-9.32,9.32H34.83c-5.22,0-9.32-4.1-9.32-9.32V53.88H100.08v21.75c0,.82,.33,1.61,.91,2.2s1.37,.91,2.2,.91,1.61-.33,2.2-.91,.91-1.37,.91-2.2V41.2c0-8.55-7.06-15.29-15.54-15.29h-6.22v-6.22c0-.82-.33-1.61-.91-2.2s-1.37-.91-2.2-.91-1.61,.33-2.2,.91-.91,1.37-.91,2.2v6.22h-31.08v-6.22c0-.82-.33-1.61-.91-2.2s-1.37-.91-2.2-.91h0Zm-9.32,15.54h6.22v6.22c0,.82,.33,1.61,.91,2.2s1.37,.91,2.2,.91,1.61-.33,2.2-.91c.58-.58,.91-1.37,.91-2.2v-6.22h31.08v6.22c0,.82,.33,1.61,.91,2.2s1.37,.91,2.2,.91,1.61-.33,2.2-.91,.91-1.37,.91-2.2v-6.22h6.22c5.29,0,9.32,3.86,9.32,9.07v6.46H25.5v-6.22c0-5.22,4.1-9.32,9.32-9.32Z"/><path d="M90.76,104.09H34.82c-8.84,0-16.03-7.19-16.03-16.03V41.45c0-8.84,7.19-16.03,16.03-16.03h5.72v-5.72c0-.96,.37-1.87,1.05-2.55s1.59-1.05,2.55-1.05h0c.96,0,1.87,.38,2.55,1.05,.67,.67,1.06,1.6,1.06,2.55v5.72h30.09v-5.72c0-.95,.38-1.88,1.06-2.55,1.36-1.36,3.73-1.36,5.09,0,.67,.67,1.05,1.6,1.05,2.55v5.72h5.72c8.84,0,16.03,7.08,16.03,15.78v34.43c0,.95-.38,1.88-1.05,2.55s-1.6,1.05-2.55,1.05-1.88-.38-2.55-1.05-1.05-1.6-1.05-2.55v-21.26H26v33.69c0,4.95,3.88,8.83,8.83,8.83h55.94c4.95,0,8.83-3.88,8.83-8.83,0-.96,.37-1.87,1.05-2.55s1.6-1.06,2.55-1.06,1.88,.38,2.55,1.06,1.05,1.58,1.05,2.55c0,8.84-7.19,16.03-16.03,16.03ZM34.82,26.41c-8.3,0-15.04,6.75-15.04,15.04v46.61c0,8.3,6.75,15.04,15.04,15.04h55.94c8.3,0,15.04-6.75,15.04-15.04,0-.7-.27-1.35-.77-1.85-.97-.97-2.72-.97-3.7,0-.49,.49-.77,1.15-.77,1.85,0,5.5-4.31,9.82-9.82,9.82H34.82c-5.5,0-9.82-4.31-9.82-9.82V53.39H100.58v22.25c0,.69,.28,1.36,.77,1.85,.97,.97,2.72,.97,3.7,0,.49-.49,.77-1.16,.77-1.85V41.2c0-8.16-6.75-14.8-15.04-14.8h-6.71v-6.71c0-.69-.28-1.36-.77-1.85-.99-.99-2.71-.99-3.7,0-.49,.49-.77,1.16-.77,1.85v6.71H46.76v-6.71c0-.69-.28-1.36-.77-1.85-.49-.49-1.15-.77-1.85-.77h0c-.7,0-1.35,.27-1.85,.77-.49,.49-.77,1.15-.77,1.85v6.71h-6.71Zm65.75,21.75H25.01v-6.71c0-5.5,4.31-9.82,9.82-9.82h6.71v6.71c0,.69,.28,1.36,.77,1.85,.99,.99,2.71,.99,3.7,0,.49-.49,.77-1.16,.77-1.85v-6.71h32.06v6.71c0,.69,.28,1.36,.77,1.85,.99,.99,2.71,.99,3.7,0,.49-.49,.77-1.16,.77-1.85v-6.71h6.71c5.6,0,9.82,4.11,9.82,9.57v6.96Zm-74.58-.99H99.59v-5.97c0-4.89-3.8-8.58-8.83-8.58h-5.72v5.72c0,.95-.38,1.88-1.05,2.55-1.36,1.36-3.73,1.36-5.09,0-.67-.67-1.06-1.6-1.06-2.55v-5.72h-30.09v5.72c0,.95-.38,1.88-1.06,2.55-1.36,1.36-3.73,1.36-5.09,0-.67-.67-1.05-1.6-1.05-2.55v-5.72h-5.72c-4.95,0-8.83,3.88-8.83,8.83v5.72Z"/></svg>