<svg xmlns="http://www.w3.org/2000/svg" width="535.78" height="535.78" viewBox="0 0 535.78 535.78"> <path id="Path_7" data-name="Path 7" d="M350.01,12.1c147.96,0,267.89,119.94,267.89,267.89s-119.94,267.89-267.89,267.89S82.12,427.938,82.12,279.988,202.06,12.1,350.01,12.1ZM217.39,283.488a26.69,26.69,0,1,1,39.582-35.816l66.73,73.734,144.2-148.95a26.732,26.732,0,0,1,38.321,37.281l-163.99,169.39-.035-.035c-.387.4-.8.8-1.227,1.176a26.681,26.681,0,0,1-37.7-1.883l-85.9-94.9Z" transform="translate(-82.12 -12.098)" fill-rule="evenodd"/> </svg>