<svg xmlns="http://www.w3.org/2000/svg" width="43.07" height="43.07" viewBox="0 0 43.07 43.07"> <g id="noun-plus-2178969" transform="translate(-70.02)"> <path id="Path_57" data-name="Path 57" d="M191.275,260h-.022a1.539,1.539,0,1,0,0,3.077h21.578a1.539,1.539,0,0,0,0-3.077H191.275Z" transform="translate(-110.488 -240.002)"/> <path id="Path_58" data-name="Path 58" d="M333.069,121.275v-.022a1.539,1.539,0,1,0-3.077,0v.023h0v21.557a1.539,1.539,0,0,0,3.077,0v-.023h0Z" transform="translate(-239.976 -110.507)"/> <path id="Path_59" data-name="Path 59" d="M91.555,0A21.535,21.535,0,1,0,113.09,21.535,21.559,21.559,0,0,0,91.555,0Zm0,3.077A18.46,18.46,0,1,1,73.1,21.537a18.437,18.437,0,0,1,18.46-18.46Z"/> </g> </svg>