<svg id="Layer_1" xmlns="http://www.w3.org/2000/svg" viewBox="0 0 125.59 120.19"><path d="M62.78,14.7c-9.45-.01-18.69,2.81-26.52,8.09-7.84,5.29-13.91,12.8-17.44,21.56-3.53,8.77-4.35,18.39-2.36,27.63,1.99,9.24,6.7,17.67,13.52,24.21,.03,.03,.04,.07,.06,.09,.27,.26,.57,.49,.85,.74,.76,.68,1.52,1.38,2.32,2.03,.43,.34,.88,.68,1.32,.99,.76,.57,1.52,1.13,2.31,1.65,.54,.34,1.09,.68,1.64,1.02,.73,.44,1.46,.88,2.21,1.29,.64,.34,1.29,.63,1.94,.94,.71,.34,1.41,.68,2.14,.98,.73,.3,1.46,.54,2.2,.81,.74,.26,1.37,.51,2.08,.72,.8,.24,1.62,.43,2.43,.63,.68,.17,1.33,.36,2.03,.49,.93,.19,1.88,.3,2.83,.43,.59,.08,1.16,.2,1.75,.25,1.55,.15,3.11,.24,4.69,.24s3.14-.08,4.69-.24c.59-.06,1.16-.17,1.75-.25,.95-.13,1.9-.25,2.83-.43,.68-.14,1.35-.34,2.03-.49,.81-.2,1.63-.39,2.43-.63,.71-.22,1.39-.48,2.08-.72s1.48-.51,2.2-.81c.72-.3,1.43-.65,2.14-.98,.65-.31,1.3-.6,1.94-.94,.75-.4,1.48-.85,2.21-1.29,.55-.34,1.11-.65,1.64-1.02,.79-.52,1.55-1.09,2.31-1.65,.44-.34,.89-.64,1.32-.99,.8-.64,1.56-1.33,2.32-2.03,.28-.25,.58-.48,.85-.74,.03-.02,.04-.06,.06-.09h0c6.83-6.54,11.54-14.97,13.53-24.22s1.16-18.87-2.37-27.63c-3.53-8.77-9.61-16.28-17.45-21.56-7.84-5.28-17.08-8.1-26.53-8.08h0Zm6.63,45.57s-.04,0-.06,.02h0c-.9,.5-1.85,.9-2.83,1.2-.18,.05-.34,.12-.52,.16-.34,.09-.69,.15-1.04,.21-.66,.11-1.32,.18-1.99,.2h-.39c-.67-.02-1.33-.08-1.99-.2-.34-.06-.7-.12-1.04-.21-.18-.04-.34-.11-.52-.16-.98-.3-1.93-.7-2.83-1.2l-.06-.02c-3.5-1.97-5.95-5.39-6.68-9.35-.73-3.95,.34-8.03,2.91-11.11,2.57-3.09,6.38-4.88,10.4-4.88s7.83,1.79,10.4,4.88c2.57,3.09,3.64,7.16,2.91,11.11-.73,3.95-3.17,7.38-6.68,9.35h0Zm-15.25,6.63c5.45,2.59,11.79,2.59,17.24,0,5.32,1.8,9.96,5.2,13.26,9.75,3.31,4.54,5.12,10,5.19,15.62-.14,.13-.28,.26-.42,.38-.62,.54-1.25,1.06-1.9,1.55-.38,.29-.76,.58-1.15,.86-.61,.44-1.24,.86-1.87,1.27-.46,.29-.93,.58-1.4,.86-.6,.34-1.2,.68-1.81,1.02-.54,.28-1.09,.54-1.65,.8-.56,.26-1.17,.53-1.77,.77-.6,.24-1.24,.47-1.86,.68-.57,.2-1.14,.4-1.72,.57-.68,.2-1.38,.37-2.08,.54-.55,.13-1.09,.27-1.64,.38-.8,.16-1.62,.26-2.44,.38-.47,.06-.93,.15-1.4,.19-1.3,.13-2.62,.2-3.95,.2s-2.65-.07-3.95-.2c-.47-.05-.93-.13-1.4-.19-.82-.11-1.64-.22-2.44-.38-.56-.11-1.1-.25-1.64-.38-.7-.17-1.4-.34-2.08-.54-.58-.17-1.15-.38-1.72-.57-.63-.22-1.25-.44-1.86-.68-.61-.24-1.18-.5-1.77-.77-.58-.27-1.11-.52-1.65-.8-.61-.32-1.22-.65-1.81-1.02-.47-.28-.94-.56-1.4-.86-.63-.4-1.26-.82-1.87-1.27-.39-.28-.77-.57-1.15-.86-.64-.5-1.28-1.02-1.9-1.55-.15-.11-.29-.25-.43-.38,.07-5.62,1.89-11.07,5.19-15.62,3.31-4.54,7.94-7.95,13.26-9.75h0Zm41.7,18.65c-1.07-5-3.26-9.7-6.39-13.73-3.14-4.04-7.14-7.32-11.72-9.59,3.57-3.89,5.49-9.03,5.34-14.31-.15-5.28-2.35-10.3-6.15-13.98-3.79-3.68-8.87-5.74-14.15-5.74s-10.36,2.06-14.15,5.74c-3.79,3.68-5.99,8.7-6.15,13.98-.15,5.28,1.76,10.42,5.34,14.31-4.58,2.28-8.59,5.56-11.72,9.59-3.14,4.04-5.32,8.73-6.39,13.73-4.95-6.97-7.57-15.32-7.49-23.87,.08-8.55,2.85-16.85,7.93-23.73,5.08-6.88,12.19-11.98,20.34-14.57,8.14-2.59,16.9-2.55,25.02,.12,8.12,2.67,15.19,7.84,20.19,14.77,5.01,6.93,7.7,15.26,7.7,23.8,0,8.42-2.63,16.63-7.53,23.48h0Z"/></svg>